<svg id="Ebene_1" data-name="Ebene 1" xmlns="http://www.w3.org/2000/svg" viewBox="0 0 406.7 222.8"><polygon points="135.2 78.4 166.6 48.4 152 20.1 172.3 20.1 179.9 36.1 197.4 20.1 216.8 20.1 186.4 47.7 200.8 78.4 180.5 78.4 172.8 60.3 154.7 78.4 135.2 78.4 135.2 78.4" style="fill:#119fe1"/><path d="M195.2,135.6c2.5-9.1,6.9-16.2,13.3-21.3a37,37,0,0,1,23.3-7.6c9.3,0,15.7,2.5,19.4,7.5s4.4,12,2,20.9a44.6,44.6,0,0,1-7.6,16.1,35,35,0,0,1-12.2,9.7,37,37,0,0,1-16.4,3.5c-6.3,0-11.2-1-14.8-3a16.1,16.1,0,0,1-7.5-9.5c-1.4-4.4-1.2-9.8.5-16.3Zm16.9.5c-1.5,5.6-1.5,9.6-.1,12.1s4,3.7,7.6,3.7a14,14,0,0,0,9.6-3.6c2.6-2.5,4.8-6.8,6.5-13s1.4-9.1-.1-11.5-4-3.6-7.7-3.6a14,14,0,0,0-9.4,3.6c-2.7,2.5-4.9,6.6-6.4,12.3Z" style="fill:#9b9f9a;fill-rule:evenodd"/><polygon points="331.2 106.6 378.7 106.6 375.2 118.7 345.5 118.7 342.9 128 370.4 128 367.1 139.8 339.6 139.8 336.3 151.2 366.9 151.2 363.2 164.3 314.8 164.3 331.2 106.6 331.2 106.6" style="fill:#9b9f9a"/><path d="M269.9,106.6h26.4c5.2,0,9.2.7,12,2.2a13.1,13.1,0,0,1,6.2,6.1,18.7,18.7,0,0,1,1.9,9.3,41.8,41.8,0,0,1-1.7,11.2,51.9,51.9,0,0,1-6.2,14.4,34,34,0,0,1-8.3,8.6,25.2,25.2,0,0,1-9.3,4.6,42.3,42.3,0,0,1-11,1.3H253.5l16.4-57.7ZM283,119.5l-9,31.7h4.3c3.8,0,6.5-.4,8.3-1.2a13.6,13.6,0,0,0,5-4.4,39.1,39.1,0,0,0,4.2-10.1c1.7-6.1,1.9-10.3.5-12.6s-4.3-3.4-8.9-3.4Z" style="fill:#9b9f9a;fill-rule:evenodd"/><polygon points="125.2 20 143.4 20 126.7 78.4 108.5 78.4 125.2 20 125.2 20" style="fill:#119fe1"/><polygon points="225.4 20.1 273 20.1 269.5 32.5 239.8 32.5 237.1 41.8 264.7 41.8 261.4 53.7 233.8 53.7 230.6 65.1 261.2 65.1 257.4 78.3 209 78.3 225.4 20.1 225.4 20.1" style="fill:#119fe1"/><path d="M281.8,20.1h25.8A24.6,24.6,0,0,1,319.4,23a13.6,13.6,0,0,1,6.1,6,19.4,19.4,0,0,1,1.8,9.2,42.4,42.4,0,0,1-1.7,11.2c-1.7,6.1-3.7,10.9-6,14.2a39.3,39.3,0,0,1-8.1,8.6,26.6,26.6,0,0,1-9.1,4.5,43.4,43.4,0,0,1-10.9,1.6H265.7l16.1-58.2Zm12.9,13.8-8.8,31.4h4.3c3.7,0,6.4-.4,8.1-1.3a12.2,12.2,0,0,0,4.9-4.3c1.4-2,2.8-5.3,4.1-9.9s1.9-10.3.5-12.5-4.2-3.4-8.7-3.4Z" style="fill:#119fe1;fill-rule:evenodd"/><polygon points="0 96.9 27.9 0 57.5 0 56.1 66.1 92.4 0 122.1 0 94.2 96.9 75.9 96.9 94.7 30.7 56.6 96.9 37.6 96.9 37.2 30.7 18.3 96.9 0 96.9 0 96.9" style="fill:#119fe1"/><polygon points="78.5 183.8 106.4 87 136.1 87 134.6 153 171 87 200.7 87 172.8 183.8 154.5 183.8 173.3 117.6 135.1 183.8 116.1 183.8 115.8 117.6 96.8 183.8 78.5 183.8 78.5 183.8" style="fill:#9b9f9a"/><path d="M84.1,214a10,10,0,0,1-3,1.9,9.4,9.4,0,0,1-3,.5,6,6,0,0,1-4.2-1.3,4.2,4.2,0,0,1-1.4-3.4,4.2,4.2,0,0,1,.5-2.2,4.4,4.4,0,0,1,1.4-1.6,7.2,7.2,0,0,1,2-.9l2.5-.4a25.3,25.3,0,0,0,5-1v-.7a3.3,3.3,0,0,0-.8-2.4,4.9,4.9,0,0,0-3.2-.9,4.8,4.8,0,0,0-2.9.7,3.5,3.5,0,0,0-1.3,2.4l-2.8-.4a6.6,6.6,0,0,1,1.3-2.8,5,5,0,0,1,2.4-1.7,13.8,13.8,0,0,1,3.7-.5,8.1,8.1,0,0,1,3.4.5,4.3,4.3,0,0,1,2,1.2,3.7,3.7,0,0,1,.8,1.9,13.4,13.4,0,0,1,.2,2.6v3.7a26.6,26.6,0,0,0,.2,4.9,4.4,4.4,0,0,0,.7,1.9H84.7A5.2,5.2,0,0,1,84.1,214Zm-.2-6.2a22.2,22.2,0,0,1-4.6,1.1,8.9,8.9,0,0,0-2.4.5,2.4,2.4,0,0,0-1.1.9,2.2,2.2,0,0,0-.4,1.3,2.3,2.3,0,0,0,.9,1.9,3.3,3.3,0,0,0,2.4.7,5.4,5.4,0,0,0,2.9-.7,4.1,4.1,0,0,0,1.8-1.9,6.3,6.3,0,0,0,.5-2.8Z" style="fill:#9b9f9a;stroke:#366;stroke-miterlimit:10;stroke-width:0.10000000149011612px"/><path d="M91,216V199.6h2.5V202a5.8,5.8,0,0,1,5.2-2.7,5.9,5.9,0,0,1,2.7.5,3.5,3.5,0,0,1,1.9,1.4,7.2,7.2,0,0,1,.9,2,20.2,20.2,0,0,1,.1,2.8v10h-2.8v-9.9a8.4,8.4,0,0,0-.3-2.6,2.8,2.8,0,0,0-1.1-1.3,3.3,3.3,0,0,0-2-.5,4,4,0,0,0-3,1.1c-.9.8-1.3,2.2-1.3,4.3V216Z" style="fill:#9b9f9a;stroke:#366;stroke-miterlimit:10;stroke-width:0.10000000149011612px"/><path d="M118.3,216V193.4h3V216Z" style="fill:#9b9f9a;stroke:#366;stroke-miterlimit:10;stroke-width:0.10000000149011612px"/><path d="M126.2,216V199.6h2.5V202a5.8,5.8,0,0,1,5.2-2.7,5.9,5.9,0,0,1,2.7.5,3.5,3.5,0,0,1,1.9,1.4,7.2,7.2,0,0,1,.9,2,20.2,20.2,0,0,1,.1,2.8v10h-2.8v-9.9a8.4,8.4,0,0,0-.3-2.6,2.8,2.8,0,0,0-1.1-1.3,3.3,3.3,0,0,0-2-.5,4,4,0,0,0-3,1.1c-.9.8-1.3,2.2-1.3,4.3V216Z" style="fill:#9b9f9a;stroke:#366;stroke-miterlimit:10;stroke-width:0.10000000149011612px"/><path d="M143.3,217.4l2.7.4a2.6,2.6,0,0,0,.9,1.8,4.7,4.7,0,0,0,2.8.8,5.1,5.1,0,0,0,3-.8,3.4,3.4,0,0,0,1.4-2.1,11.2,11.2,0,0,0,.2-3.6,5.7,5.7,0,0,1-4.5,2.1,6.1,6.1,0,0,1-5.2-2.4,9.1,9.1,0,0,1-1.9-5.9,10.4,10.4,0,0,1,.9-4.3,7.4,7.4,0,0,1,2.4-3.1,7,7,0,0,1,3.8-1,5.6,5.6,0,0,1,4.8,2.3v-2h2.6v14.2a13.2,13.2,0,0,1-.8,5.4,5.3,5.3,0,0,1-2.5,2.6,8.6,8.6,0,0,1-4.1.9,7.8,7.8,0,0,1-4.8-1.3A4.3,4.3,0,0,1,143.3,217.4Zm2.3-9.9c0,2.2.4,3.8,1.3,4.8a4.2,4.2,0,0,0,3.2,1.4,4.5,4.5,0,0,0,3.2-1.4,7.5,7.5,0,0,0,1.3-4.7,6.5,6.5,0,0,0-1.4-4.5,3.9,3.9,0,0,0-3.2-1.5,3.9,3.9,0,0,0-3.1,1.5A6.4,6.4,0,0,0,145.6,207.5Z" style="fill:#9b9f9a;stroke:#366;stroke-miterlimit:10;stroke-width:0.10000000149011612px"/><path d="M172.6,210.8l2.9.3A7.2,7.2,0,0,1,173,215a7.9,7.9,0,0,1-4.7,1.4,7.4,7.4,0,0,1-5.7-2.2,8.8,8.8,0,0,1-2.1-6.2,9.4,9.4,0,0,1,2.1-6.5,7.2,7.2,0,0,1,5.5-2.2,7,7,0,0,1,5.4,2.2,8.9,8.9,0,0,1,2.1,6.3v.7H163.3a6,6,0,0,0,1.6,4.2,4.6,4.6,0,0,0,3.4,1.4,3.8,3.8,0,0,0,2.6-.8A5.3,5.3,0,0,0,172.6,210.8Zm-9.1-4.5h9.1a4.9,4.9,0,0,0-1-3.1,4.3,4.3,0,0,0-3.5-1.7,4.8,4.8,0,0,0-3.2,1.3A5.6,5.6,0,0,0,163.5,206.3Z" style="fill:#9b9f9a;stroke:#366;stroke-miterlimit:10;stroke-width:0.10000000149011612px"/><path d="M179,216V199.6h2.5V202a5.8,5.8,0,0,1,5.2-2.7,5.9,5.9,0,0,1,2.7.5,3.5,3.5,0,0,1,1.9,1.4,7.2,7.2,0,0,1,.9,2,20.2,20.2,0,0,1,.1,2.8v10h-2.8v-9.9a8.4,8.4,0,0,0-.3-2.6,2.8,2.8,0,0,0-1.1-1.3,3.3,3.3,0,0,0-2-.5,4,4,0,0,0-3,1.1c-.9.8-1.3,2.2-1.3,4.3V216Z" style="fill:#9b9f9a;stroke:#366;stroke-miterlimit:10;stroke-width:0.10000000149011612px"/><path d="M196.6,196.6v-3.2h2.8v3.2Zm0,19.4V199.6h2.8V216Z" style="fill:#9b9f9a;stroke:#366;stroke-miterlimit:10;stroke-width:0.10000000149011612px"/><path d="M214.3,210l2.8.4a7.2,7.2,0,0,1-2.3,4.4,6.8,6.8,0,0,1-4.6,1.6,7,7,0,0,1-5.4-2.2c-1.4-1.5-2-3.6-2-6.3a13.6,13.6,0,0,1,.8-4.7,5.9,5.9,0,0,1,2.7-2.9,7.6,7.6,0,0,1,3.9-1,6.8,6.8,0,0,1,4.4,1.3,6.3,6.3,0,0,1,2.2,3.9l-2.7.4a4.4,4.4,0,0,0-1.4-2.5,3.2,3.2,0,0,0-2.4-.9,4.4,4.4,0,0,0-3.4,1.6,7.3,7.3,0,0,0-1.3,4.7c0,2.2.4,3.8,1.3,4.8a4,4,0,0,0,3.3,1.5,3.6,3.6,0,0,0,2.7-1A4.5,4.5,0,0,0,214.3,210Z" style="fill:#9b9f9a;stroke:#366;stroke-miterlimit:10;stroke-width:0.10000000149011612px"/><path d="M218.3,211.1l2.8-.4a3.4,3.4,0,0,0,1.3,2.5,4.4,4.4,0,0,0,2.9.9,4.2,4.2,0,0,0,2.9-.8,2.3,2.3,0,0,0,.9-1.8,1.9,1.9,0,0,0-.8-1.5l-2.9-.9a37.7,37.7,0,0,1-4.2-1.3,4,4,0,0,1-1.8-1.6,4.3,4.3,0,0,1-.6-2.2,4.6,4.6,0,0,1,.5-2,3.6,3.6,0,0,1,1.4-1.6,5.4,5.4,0,0,1,1.7-.8l2.4-.3a9,9,0,0,1,3.4.5,5.3,5.3,0,0,1,2.2,1.5,6.1,6.1,0,0,1,.9,2.6l-2.7.3a2.7,2.7,0,0,0-1.1-1.9,3.7,3.7,0,0,0-2.5-.8,4.4,4.4,0,0,0-2.7.7,1.7,1.7,0,0,0-.8,1.5,1.6,1.6,0,0,0,.3.9,2.4,2.4,0,0,0,1.1.8l2.4.7a23.9,23.9,0,0,1,4.2,1.3,4.9,4.9,0,0,1,1.8,1.4,4.8,4.8,0,0,1,.6,2.4,4.2,4.2,0,0,1-.8,2.6,4.3,4.3,0,0,1-2.3,1.9,7.8,7.8,0,0,1-3.5.7,7.4,7.4,0,0,1-4.8-1.3A5.9,5.9,0,0,1,218.3,211.1Z" style="fill:#9b9f9a;stroke:#366;stroke-miterlimit:10;stroke-width:0.10000000149011612px"/><path d="M254.8,210l2.7.4a7.2,7.2,0,0,1-2.3,4.4,6.4,6.4,0,0,1-4.5,1.6,7.1,7.1,0,0,1-5.5-2.2,9.3,9.3,0,0,1-2-6.3,11.6,11.6,0,0,1,.9-4.7,5.9,5.9,0,0,1,2.7-2.9,7.6,7.6,0,0,1,3.9-1,6.5,6.5,0,0,1,4.3,1.3,5.9,5.9,0,0,1,2.2,3.9l-2.7.4a4.3,4.3,0,0,0-1.3-2.5,3.6,3.6,0,0,0-2.4-.9,4.3,4.3,0,0,0-3.4,1.6c-.9,1-1.3,2.5-1.3,4.7a7.7,7.7,0,0,0,1.2,4.8,4.3,4.3,0,0,0,3.3,1.5,4,4,0,0,0,2.8-1A5,5,0,0,0,254.8,210Z" style="fill:#9b9f9a;stroke:#366;stroke-miterlimit:10;stroke-width:0.10000000149011612px"/><path d="M258.8,207.8c0-3,.9-5.3,2.6-6.7a7.6,7.6,0,0,1,5.1-1.8,7.5,7.5,0,0,1,5.6,2.2,8.5,8.5,0,0,1,2.1,6.1,11.5,11.5,0,0,1-.9,5,7.5,7.5,0,0,1-2.8,2.8,7.7,7.7,0,0,1-4,1,7.1,7.1,0,0,1-5.5-2.2C259.5,212.7,258.8,210.6,258.8,207.8Zm2.9,0a7.4,7.4,0,0,0,1.4,4.8,4.6,4.6,0,0,0,6.9-.1,8.6,8.6,0,0,0,0-9.4,4.7,4.7,0,0,0-3.5-1.5,4.3,4.3,0,0,0-3.4,1.5A7.1,7.1,0,0,0,261.7,207.8Z" style="fill:#9b9f9a;stroke:#366;stroke-miterlimit:10;stroke-width:0.10000000149011612px"/><path d="M277.5,216V199.6H280v2.3a6.1,6.1,0,0,1,2-1.9,5.7,5.7,0,0,1,2.9-.7,5.6,5.6,0,0,1,3,.7,3.9,3.9,0,0,1,1.7,2.1,5.8,5.8,0,0,1,5-2.8,5,5,0,0,1,3.8,1.3,5.7,5.7,0,0,1,1.3,4.2V216h-2.8V205.7a12.5,12.5,0,0,0-.2-2.4,2.3,2.3,0,0,0-1-1.2,3.1,3.1,0,0,0-1.7-.4,4.4,4.4,0,0,0-2.9,1.1,5.4,5.4,0,0,0-1.1,3.7V216h-2.8V205.4a4.3,4.3,0,0,0-.7-2.8,2.5,2.5,0,0,0-2.2-.9,4.3,4.3,0,0,0-2.2.6,3.7,3.7,0,0,0-1.4,1.8,10.1,10.1,0,0,0-.4,3.4V216Z" style="fill:#9b9f9a;stroke:#366;stroke-miterlimit:10;stroke-width:0.10000000149011612px"/><path d="M303.8,222.3V199.6h2.6v2.2a5.2,5.2,0,0,1,2-1.9,5.7,5.7,0,0,1,2.7-.6,6.4,6.4,0,0,1,3.7,1,7.6,7.6,0,0,1,2.5,3.1,11.8,11.8,0,0,1,.8,4.3,10.6,10.6,0,0,1-.9,4.5,6.3,6.3,0,0,1-2.7,3.1,5.9,5.9,0,0,1-3.6,1.1,5.4,5.4,0,0,1-2.5-.6,6.5,6.5,0,0,1-1.8-1.5v8Zm2.6-14.4a7.6,7.6,0,0,0,1.2,4.7,4,4,0,0,0,3.1,1.5,4.1,4.1,0,0,0,3.2-1.5,7.5,7.5,0,0,0,1.3-4.9c0-2.1-.4-3.7-1.3-4.7a3.8,3.8,0,0,0-3-1.6,4.1,4.1,0,0,0-3.2,1.7A7.4,7.4,0,0,0,306.4,207.9Z" style="fill:#9b9f9a;stroke:#366;stroke-miterlimit:10;stroke-width:0.10000000149011612px"/><path d="M332.1,214a11,11,0,0,1-2.9,1.9,10.6,10.6,0,0,1-3.1.5,6,6,0,0,1-4.2-1.3,4.6,4.6,0,0,1-1.4-3.4,5.4,5.4,0,0,1,.5-2.2,4.6,4.6,0,0,1,1.5-1.6,6.1,6.1,0,0,1,2-.9l2.4-.4a25.3,25.3,0,0,0,5-1v-.7a2.9,2.9,0,0,0-.8-2.4,6,6,0,0,0-6-.2,3.5,3.5,0,0,0-1.4,2.4l-2.7-.4a5.6,5.6,0,0,1,1.2-2.8,6.1,6.1,0,0,1,2.4-1.7,14.6,14.6,0,0,1,3.8-.5,8.4,8.4,0,0,1,3.4.5,3.9,3.9,0,0,1,1.9,1.2,4.8,4.8,0,0,1,.9,1.9,16.4,16.4,0,0,1,.1,2.6v3.7a41.4,41.4,0,0,0,.2,4.9,6.2,6.2,0,0,0,.7,1.9h-2.9A5.2,5.2,0,0,1,332.1,214Zm-.2-6.2a20.9,20.9,0,0,1-4.5,1.1,8.9,8.9,0,0,0-2.5.5,3.1,3.1,0,0,0-1.1.9,3.1,3.1,0,0,0-.3,1.3,2.2,2.2,0,0,0,.8,1.9,3.7,3.7,0,0,0,2.5.7,5.3,5.3,0,0,0,2.8-.7,3.9,3.9,0,0,0,1.9-1.9,6.6,6.6,0,0,0,.4-2.8Z" style="fill:#9b9f9a;stroke:#366;stroke-miterlimit:10;stroke-width:0.10000000149011612px"/><path d="M339,216V199.6h2.5V202a6,6,0,0,1,5.3-2.7,6.2,6.2,0,0,1,2.7.5,3.7,3.7,0,0,1,1.8,1.4,5.2,5.2,0,0,1,.9,2,17,17,0,0,1,.2,2.8v10h-2.8v-9.9a8.4,8.4,0,0,0-.3-2.6,3.3,3.3,0,0,0-3.1-1.8,4.4,4.4,0,0,0-3.1,1.1c-.9.8-1.3,2.2-1.3,4.3V216Z" style="fill:#9b9f9a;stroke:#366;stroke-miterlimit:10;stroke-width:0.10000000149011612px"/><path d="M356.5,222.4l-.3-2.6,1.6.2a3.3,3.3,0,0,0,1.5-.3,3.8,3.8,0,0,0,.9-.9,12.8,12.8,0,0,0,.8-2l.3-.7-6.2-16.5h3l3.4,9.5,1.2,3.8c.3-1.2.7-2.5,1.1-3.7l3.5-9.6h2.8l-6.3,16.7a19.1,19.1,0,0,1-1.5,3.7,6.2,6.2,0,0,1-1.7,2.1,4.4,4.4,0,0,1-2.3.6Z" style="fill:#9b9f9a;stroke:#366;stroke-miterlimit:10;stroke-width:0.10000000149011612px"/></svg>