<svg id="Ebene_1" data-name="Ebene 1" xmlns="http://www.w3.org/2000/svg" viewBox="0 0 512.1 160"><path d="M290.7,59.1A58.9,58.9,0,1,1,231.8.2,58.9,58.9,0,0,1,290.7,59.1Z" style="fill:#e88b3c"/><path d="M9.4.9H61.2c11.7,0,21,3.5,28,10.3A32.6,32.6,0,0,1,99.5,35.3,34,34,0,0,1,89.3,60.1c-6.9,6.8-16.2,10.3-28,10.3h-23V117H9.4ZM38.3,22.2V49.1H51.8c12,0,18-4.5,18-13.4q0-7.7-4.8-10.5t-16.5-3Z" style="fill:#fff;stroke:#1b1b19;stroke-miterlimit:10;stroke-width:1.89803px"/><path d="M149.7.9V117H120.8V.9Z" style="fill:#fff;stroke:#1b1b19;stroke-miterlimit:10;stroke-width:1.89803px"/><path d="M296,.9,250.6,56.8,300.9,117H263.4L232,78.7,201.1,117h-37l49.3-60.1L166.9.9h37.5L232,35.2,259.2.9Z" style="fill:#fff;stroke:#1b1b19;stroke-miterlimit:10;stroke-width:1.89803px"/><path d="M400.6,95.7V117H315.1V.9h84.3V22.2H344V46.5h52.9V67.8H344V95.7Z" style="fill:#fff;stroke:#1b1b19;stroke-miterlimit:10;stroke-width:1.89803px"/><path d="M511.2,95.7V117H422.7V.9h28.9V95.7Z" style="fill:#fff;stroke:#1b1b19;stroke-miterlimit:10;stroke-width:1.89803px"/><path d="M130.3,148.3a11,11,0,0,1-2.8,1.8,9.3,9.3,0,0,1-2.9.5,5.3,5.3,0,0,1-3.9-1.3,3.9,3.9,0,0,1-1.4-3.2,5.4,5.4,0,0,1,.5-2.1,5,5,0,0,1,1.4-1.5,5.6,5.6,0,0,1,1.9-.9l2.3-.3a23,23,0,0,0,4.7-1v-.6a2.9,2.9,0,0,0-.7-2.3,4.5,4.5,0,0,0-3-.9,5.1,5.1,0,0,0-2.8.6,4.2,4.2,0,0,0-1.3,2.4l-2.6-.4a8.5,8.5,0,0,1,1.2-2.7,4.2,4.2,0,0,1,2.3-1.5,9.7,9.7,0,0,1,3.6-.6,9.3,9.3,0,0,1,3.2.5,4.1,4.1,0,0,1,1.8,1.2,3,3,0,0,1,.8,1.8,11,11,0,0,1,.2,2.4v3.5c0,2.5,0,4,.1,4.7a13.4,13.4,0,0,0,.7,1.8h-2.7A5.3,5.3,0,0,1,130.3,148.3Zm-.2-5.9a19.6,19.6,0,0,1-4.3,1l-2.3.5a2.2,2.2,0,0,0-1,.9,1.9,1.9,0,0,0-.4,1.2,2.5,2.5,0,0,0,.8,1.8,3.2,3.2,0,0,0,2.3.7,4.5,4.5,0,0,0,2.7-.7,3.9,3.9,0,0,0,1.8-1.8,6.2,6.2,0,0,0,.4-2.6Z" style="fill:#999899"/><path d="M136.9,150.2V134.7h2.3v2.2a5.7,5.7,0,0,1,5-2.6,7.5,7.5,0,0,1,2.6.5,4,4,0,0,1,1.7,1.3,6.1,6.1,0,0,1,.9,2,16.4,16.4,0,0,1,.1,2.6v9.5h-2.6v-9.4a8.1,8.1,0,0,0-.3-2.5,2.5,2.5,0,0,0-1.1-1.2,3.8,3.8,0,0,0-1.9-.5,4.4,4.4,0,0,0-2.9,1.1c-.8.7-1.2,2-1.2,4v8.5Z" style="fill:#999899"/><path d="M162.7,150.2V128.7h2.8v21.5Z" style="fill:#999899"/><path d="M170.2,150.2V134.7h2.4v2.2a5.6,5.6,0,0,1,4.9-2.6,7.1,7.1,0,0,1,2.6.5,5.2,5.2,0,0,1,1.8,1.3,4.4,4.4,0,0,1,.8,2,13.4,13.4,0,0,1,.2,2.6v9.5h-2.7v-9.4a8.1,8.1,0,0,0-.3-2.5,2.1,2.1,0,0,0-1.1-1.2,3.5,3.5,0,0,0-1.8-.5,4.4,4.4,0,0,0-2.9,1.1c-.8.7-1.2,2-1.2,4v8.5Z" style="fill:#999899"/><path d="M186.4,151.5l2.6.4a2.2,2.2,0,0,0,.9,1.7,4.1,4.1,0,0,0,2.7.7,4.7,4.7,0,0,0,2.8-.7,3.4,3.4,0,0,0,1.3-2,13.9,13.9,0,0,0,.2-3.4,5.5,5.5,0,0,1-4.3,2,5.8,5.8,0,0,1-4.9-2.3,8.7,8.7,0,0,1-1.8-5.5,11.6,11.6,0,0,1,.8-4.2,6.6,6.6,0,0,1,2.3-2.9,7.5,7.5,0,0,1,3.6-1,5.8,5.8,0,0,1,4.6,2.2v-1.8h2.4v13.4a13.4,13.4,0,0,1-.7,5.2,5.6,5.6,0,0,1-2.4,2.4,9,9,0,0,1-3.9.8,7.5,7.5,0,0,1-4.5-1.2A4.3,4.3,0,0,1,186.4,151.5Zm2.2-9.3a6.6,6.6,0,0,0,1.2,4.4,3.7,3.7,0,0,0,3.1,1.4,3.6,3.6,0,0,0,3-1.4,8.5,8.5,0,0,0,0-8.7,4,4,0,0,0-6.1,0A6.7,6.7,0,0,0,188.6,142.2Z" style="fill:#999899"/><path d="M214.2,145.2l2.8.3a7.8,7.8,0,0,1-2.4,3.8,8,8,0,0,1-4.5,1.3,7,7,0,0,1-5.4-2.1,8.4,8.4,0,0,1-2-5.9,8.8,8.8,0,0,1,2-6.1,6.8,6.8,0,0,1,5.3-2.2,6.6,6.6,0,0,1,5.1,2.1,8.5,8.5,0,0,1,2,6c0,.2-.1.4-.1.7H205.4a5.8,5.8,0,0,0,1.5,3.9,4.3,4.3,0,0,0,3.2,1.4,4.1,4.1,0,0,0,2.5-.8A4.8,4.8,0,0,0,214.2,145.2Zm-8.6-4.3h8.7a5.5,5.5,0,0,0-1-2.9,4.3,4.3,0,0,0-3.3-1.5,4.1,4.1,0,0,0-3,1.2A4.5,4.5,0,0,0,205.6,140.9Z" style="fill:#999899"/><path d="M220.3,150.2V134.7h2.3v2.2a5.7,5.7,0,0,1,5-2.6,7.5,7.5,0,0,1,2.6.5,5.2,5.2,0,0,1,1.8,1.3,9.3,9.3,0,0,1,.8,2,16.4,16.4,0,0,1,.1,2.6v9.5h-2.6v-9.4a8.1,8.1,0,0,0-.3-2.5,2.5,2.5,0,0,0-1.1-1.2,3.8,3.8,0,0,0-1.9-.5,4.6,4.6,0,0,0-2.9,1.1c-.8.7-1.2,2-1.2,4v8.5Z" style="fill:#999899"/><path d="M237,131.8v-3.1h2.6v3.1Zm0,18.4V134.7h2.6v15.5Z" style="fill:#999899"/><path d="M253.8,144.5l2.6.4a7.2,7.2,0,0,1-2.2,4.2,6.4,6.4,0,0,1-4.3,1.5,6.6,6.6,0,0,1-5.1-2.1,8.5,8.5,0,0,1-2-6,9.9,9.9,0,0,1,.9-4.4,5.3,5.3,0,0,1,2.5-2.8,6.9,6.9,0,0,1,3.7-1,6.4,6.4,0,0,1,4.2,1.3,6.1,6.1,0,0,1,2,3.6l-2.5.4a4.7,4.7,0,0,0-1.3-2.3,3.2,3.2,0,0,0-2.3-.8,4.2,4.2,0,0,0-3.2,1.4,6.5,6.5,0,0,0-1.3,4.5,7.2,7.2,0,0,0,1.2,4.6,4.2,4.2,0,0,0,3.2,1.4,3.5,3.5,0,0,0,2.6-1A4.6,4.6,0,0,0,253.8,144.5Z" style="fill:#999899"/><path d="M257.6,145.6l2.6-.4a3.5,3.5,0,0,0,1.2,2.4,4.7,4.7,0,0,0,2.8.8,4.1,4.1,0,0,0,2.7-.7,2.3,2.3,0,0,0,.9-1.8,1.7,1.7,0,0,0-.8-1.4l-2.7-.9-4-1.2a4.2,4.2,0,0,1-1.7-1.5,3.9,3.9,0,0,1-.6-2.1,4.1,4.1,0,0,1,.5-1.9,3.7,3.7,0,0,1,1.3-1.5,5.4,5.4,0,0,1,1.7-.8,7.8,7.8,0,0,1,2.2-.3,10.9,10.9,0,0,1,3.3.5,4.6,4.6,0,0,1,2,1.5,6.7,6.7,0,0,1,.9,2.4l-2.6.3a2.4,2.4,0,0,0-1-1.8,3.4,3.4,0,0,0-2.4-.7,4.5,4.5,0,0,0-2.6.6,1.7,1.7,0,0,0-.4,2.3,2,2,0,0,0,1,.7l2.3.7,3.9,1.2a4.2,4.2,0,0,1,1.8,1.4,3.8,3.8,0,0,1,.6,2.2,4.8,4.8,0,0,1-3,4.3,7.2,7.2,0,0,1-3.3.7,7.6,7.6,0,0,1-4.6-1.3A5.6,5.6,0,0,1,257.6,145.6Z" style="fill:#999899"/><path d="M292.1,144.5l2.6.4a7.2,7.2,0,0,1-2.2,4.2,6.3,6.3,0,0,1-4.3,1.5,6.6,6.6,0,0,1-5.1-2.1c-1.3-1.4-1.9-3.4-1.9-6a9.9,9.9,0,0,1,.8-4.4,5.3,5.3,0,0,1,2.5-2.8,7.1,7.1,0,0,1,3.7-1,6.4,6.4,0,0,1,4.2,1.3,5.7,5.7,0,0,1,2.1,3.6l-2.6.4a4.7,4.7,0,0,0-1.3-2.3,3.1,3.1,0,0,0-2.3-.8,4.2,4.2,0,0,0-3.2,1.4,7.1,7.1,0,0,0-1.2,4.5,7.2,7.2,0,0,0,1.2,4.6,4,4,0,0,0,3.1,1.4,3.5,3.5,0,0,0,2.6-1A4.6,4.6,0,0,0,292.1,144.5Z" style="fill:#999899"/><path d="M296,142.4c0-2.8.8-5,2.4-6.4a7.5,7.5,0,0,1,4.9-1.7,6.9,6.9,0,0,1,5.2,2.1,7.8,7.8,0,0,1,2.1,5.8,10.1,10.1,0,0,1-.9,4.7,5.9,5.9,0,0,1-2.7,2.7,7.6,7.6,0,0,1-9-1.1C296.6,147.1,296,145.1,296,142.4Zm2.7,0a6.5,6.5,0,0,0,1.3,4.5,4.3,4.3,0,0,0,3.3,1.5,3.9,3.9,0,0,0,3.2-1.5,6.5,6.5,0,0,0,1.3-4.5,6.3,6.3,0,0,0-1.3-4.4,3.9,3.9,0,0,0-3.2-1.5A4.3,4.3,0,0,0,300,138,6.3,6.3,0,0,0,298.7,142.4Z" style="fill:#999899"/><path d="M313.6,150.2V134.7H316v2.1a5.9,5.9,0,0,1,2-1.8,5,5,0,0,1,2.7-.7,5.2,5.2,0,0,1,2.9.7,4.3,4.3,0,0,1,1.5,2,5.5,5.5,0,0,1,4.8-2.7,4.7,4.7,0,0,1,3.6,1.3,5.5,5.5,0,0,1,1.2,3.9v10.7h-2.6v-9.8a6.7,6.7,0,0,0-.3-2.3,1.9,1.9,0,0,0-.9-1.1,2.7,2.7,0,0,0-1.6-.4,3.7,3.7,0,0,0-2.7,1.1,4.9,4.9,0,0,0-1.1,3.5v9h-2.6V140.1a3.8,3.8,0,0,0-.7-2.6,2.3,2.3,0,0,0-2.1-.9,3.6,3.6,0,0,0-2,.6,3,3,0,0,0-1.4,1.7,8.9,8.9,0,0,0-.4,3.2v8.1Z" style="fill:#999899"/><path d="M338.6,156.2V134.7H341v2a5.7,5.7,0,0,1,2-1.8,4.9,4.9,0,0,1,2.5-.6,7.2,7.2,0,0,1,3.6,1,7.4,7.4,0,0,1,2.3,2.9,11,11,0,0,1,.7,4.1,10,10,0,0,1-.8,4.3,6.8,6.8,0,0,1-2.5,3,7,7,0,0,1-3.4,1,5.3,5.3,0,0,1-4.1-2v7.6Zm2.4-13.7a7.1,7.1,0,0,0,1.2,4.5,3.9,3.9,0,0,0,3,1.4,3.7,3.7,0,0,0,3-1.5,7.2,7.2,0,0,0,1.2-4.6,6.6,6.6,0,0,0-1.2-4.4,3.6,3.6,0,0,0-2.9-1.5,4,4,0,0,0-3,1.5A7.6,7.6,0,0,0,341,142.5Z" style="fill:#999899"/><path d="M365.5,148.3a13.1,13.1,0,0,1-2.8,1.8,9.9,9.9,0,0,1-3,.5,5.3,5.3,0,0,1-3.9-1.3,4.2,4.2,0,0,1-1.4-3.2,5.4,5.4,0,0,1,.5-2.1,5,5,0,0,1,1.4-1.5,6.6,6.6,0,0,1,1.9-.9l2.3-.3a24.3,24.3,0,0,0,4.8-1v-.6a2.9,2.9,0,0,0-.8-2.3,4.5,4.5,0,0,0-3-.9,4.9,4.9,0,0,0-2.7.6,3.7,3.7,0,0,0-1.3,2.4l-2.6-.4a6.7,6.7,0,0,1,1.1-2.7,4.9,4.9,0,0,1,2.4-1.5,9.5,9.5,0,0,1,3.5-.6,9.3,9.3,0,0,1,3.2.5A3.9,3.9,0,0,1,367,136a3.8,3.8,0,0,1,.8,1.8,13.6,13.6,0,0,1,.1,2.4v3.5a38.4,38.4,0,0,0,.2,4.7,4.5,4.5,0,0,0,.7,1.8H366A3.8,3.8,0,0,1,365.5,148.3Zm-.2-5.9a20.8,20.8,0,0,1-4.4,1l-2.3.5a2.2,2.2,0,0,0-1,.9,2.8,2.8,0,0,0-.4,1.2,2.5,2.5,0,0,0,.8,1.8,3.4,3.4,0,0,0,2.4.7,5,5,0,0,0,2.7-.7,3.3,3.3,0,0,0,1.7-1.8,6,6,0,0,0,.5-2.6Z" style="fill:#999899"/><path d="M372,150.2V134.7h2.4v2.2a5.6,5.6,0,0,1,4.9-2.6,7.1,7.1,0,0,1,2.6.5,5.2,5.2,0,0,1,1.8,1.3,6,6,0,0,1,.8,2,16.4,16.4,0,0,1,.1,2.6v9.5H382v-9.4a8.1,8.1,0,0,0-.3-2.5,2.5,2.5,0,0,0-1.1-1.2,3.5,3.5,0,0,0-1.8-.5,4.2,4.2,0,0,0-2.9,1.1c-.9.7-1.3,2-1.3,4v8.5Z" style="fill:#999899"/><path d="M388.6,156.2l-.3-2.5,1.5.3a2.9,2.9,0,0,0,1.4-.3l.9-.8.8-2a2.5,2.5,0,0,1,.2-.7l-5.9-15.5H390l3.3,9a30.7,30.7,0,0,1,1.1,3.6c.3-1.2.7-2.4,1.1-3.6l3.3-9h2.6l-5.9,15.8a34.6,34.6,0,0,1-1.4,3.5,5.3,5.3,0,0,1-1.7,1.9,3.7,3.7,0,0,1-2.1.6Z" style="fill:#999899"/></svg>